# xmcd
#
# Track frame offsets: 
#        300
#        18593
#        44953
#        65363
#        97846
#        113483
#        138390
#        157721
#        179475
#        198555
#
# Disc length: 3068 seconds
#
# Revision: 1
# Processed by: cddbd v1.5.2PL0 Copyright (c) Steve Scherf et al.
# Submitted via: ExactAudioCopy v0.99pb4
#
DISCID=850bf80a
DTITLE=Motorcitysoul - Did You Expect That?
DYEAR=2004
DGENRE=House
TTITLE0=It's On
TTITLE1=Written In The Stars
TTITLE2=The Dream
TTITLE3=Take A Look Around
TTITLE4=Let You Go
TTITLE5=With You '92
TTITLE6=Did You Expect That?
TTITLE7=Me, On GRP
TTITLE8=Take Care
TTITLE9=(You Don't Know) The Blues
EXTD=
EXTT0=
EXTT1=
EXTT2=
EXTT3=
EXTT4=
EXTT5=
EXTT6=
EXTT7=
EXTT8=
EXTT9=
PLAYORDER=
